<?xml version="1.0" standalone="no"?>
<!DOCTYPE svg PUBLIC "-//W3C//DTD SVG 20010904//EN"
 "http://www.w3.org/TR/2001/REC-SVG-20010904/DTD/svg10.dtd">
<svg version="1.0" xmlns="http://www.w3.org/2000/svg"
 width="460.000000pt" height="460.000000pt" viewBox="0 0 460.000000 460.000000"
 preserveAspectRatio="xMidYMid meet">
<metadata>
Created by potrace 1.11, written by Peter Selinger 2001-2013
</metadata>
<g transform="translate(0.000000,460.000000) scale(0.100000,-0.100000)"
fill="#000000" stroke="none">
<path d="M350 3620 l0 -579 23 -12 c23 -13 273 -167 362 -224 57 -36 93 -58
365 -226 107 -67 211 -131 230 -143 34 -22 216 -136 254 -159 24 -14 196 -121
246 -152 19 -12 67 -42 105 -67 39 -25 117 -73 175 -108 58 -34 132 -81 165
-104 33 -23 67 -45 75 -49 8 -4 35 -20 60 -37 25 -16 70 -43 100 -61 30 -18
57 -36 58 -41 2 -4 8 -8 13 -8 5 0 47 -25 94 -55 46 -30 97 -61 112 -70 16 -9
42 -24 58 -35 17 -11 46 -29 65 -40 19 -11 62 -38 95 -60 33 -22 69 -44 80
-50 11 -5 52 -30 90 -55 39 -25 86 -54 105 -65 19 -11 47 -28 61 -38 15 -9 51
-32 80 -50 30 -18 74 -46 99 -62 25 -17 52 -33 60 -37 8 -4 30 -17 49 -30 19
-13 41 -23 50 -23 9 0 141 61 293 137 l277 138 1 1473 0 1472 -1950 0 -1950 0
0 -580z"/>
</g>
</svg>
